<svg xmlns="http://www.w3.org/2000/svg" viewBox="0 0 77 101.4"><defs><style>.cls-1{fill:#fff;}</style></defs><title>White logo</title><g id="Layer_2" data-name="Layer 2"><g id="Capa_1" data-name="Capa 1"><path class="cls-1" d="M38.5,0A38.52,38.52,0,0,0,0,38.5c0,29.7,38.5,62.9,38.5,62.9S77,66.9,77,38.5A38.52,38.52,0,0,0,38.5,0ZM57.1,58.6a22.43,22.43,0,0,0-10.8-8.3c1.9-1.9,3.3-4.8,4-8.8.9.2,2-.7,2.4-2.2s.9-4.1,0-4.3a1.13,1.13,0,0,0-.8.1V30.8c.1-4.6-.5-9.1-5.5-11a10.83,10.83,0,0,1-1-3.6c-2.3,2-10.9,2.9-10.9,2.9h.1c-10.9,1.1-9.4,5.1-9.4,11.7v4.3a1.13,1.13,0,0,0-.8-.1c-.9.2-.6,2.7-.2,4.2s1.7,2.5,2.6,2.3c.7,4.2,2,7,3.8,8.8A21.73,21.73,0,0,0,20,58.5a28.29,28.29,0,1,1,37.1.1Z"/></g></g></svg>